<svg width="412" height="917" viewBox="0 0 412 917" fill="none" xmlns="http://www.w3.org/2000/svg">
<g clip-path="url(#clip0_891_821)">
<rect width="412" height="917" fill="#EFE6EE"/>
<path d="M378.5 242L397.979 260.513L422.226 248.926L435.031 272.552L461.672 269.024L466.549 295.451L492.976 300.328L489.448 326.969L513.074 339.774L501.487 364.021L520 383.5L501.487 402.979L513.074 427.226L489.448 440.031L492.976 466.672L466.549 471.549L461.672 497.976L435.031 494.448L422.226 518.074L397.979 506.487L378.5 525L359.021 506.487L334.774 518.074L321.969 494.448L295.328 497.976L290.451 471.549L264.024 466.672L267.552 440.031L243.926 427.226L255.513 402.979L237 383.5L255.513 364.021L243.926 339.774L267.552 326.969L264.024 300.328L290.451 295.451L295.328 269.024L321.969 272.552L334.774 248.926L359.021 260.513L378.5 242Z" fill="#7831E7"/>
<circle cx="200.679" cy="928.679" r="190" transform="rotate(119.594 200.679 928.679)" stroke="#7032D8" stroke-width="20"/>
<circle cx="33.4484" cy="145.449" r="199.5" transform="rotate(119.594 33.4484 145.449)" stroke="#F2146F" stroke-width="30"/>
<circle cx="-0.243851" cy="598.756" r="69.5" transform="rotate(119.594 -0.243851 598.756)" fill="#F76CA5"/>
</g>
<defs>
<clipPath id="clip0_891_821">
<rect width="412" height="917" fill="white"/>
</clipPath>
</defs>
</svg>
